<svg width="184" height="54" viewBox="0 0 184 54" fill="none" xmlns="http://www.w3.org/2000/svg">
<path fill-rule="evenodd" clip-rule="evenodd" d="M30 33L24.5104 13L19 33H30Z" fill="#9DB1D8"/>
<path fill-rule="evenodd" clip-rule="evenodd" d="M36 53H13L15.3022 45H33.7051L36 53Z" fill="#9DB1D8"/>
<path fill-rule="evenodd" clip-rule="evenodd" d="M82 53H63L82 26V53Z" fill="#9DB1D8"/>
<path fill-rule="evenodd" clip-rule="evenodd" d="M62 0H82L62 29V0Z" fill="#9DB1D8"/>
<path fill-rule="evenodd" clip-rule="evenodd" d="M34 0H46.92L47 38L34 0Z" fill="#9DB1D8"/>
<path fill-rule="evenodd" clip-rule="evenodd" d="M47 38V53H52L47 38Z" fill="#9DB1D8"/>
<path fill-rule="evenodd" clip-rule="evenodd" d="M0 0H16L0 44V0Z" fill="#9DB1D8"/>
<path fill-rule="evenodd" clip-rule="evenodd" d="M96 22.9719H99.2579L101.906 16.0789H111.927L114.517 23H118L108.741 0H105.244L96 22.9719ZM106.92 2.76422H106.985L110.933 13.4765H102.9L106.92 2.76422Z" fill="#9DB1D8"/>
<path fill-rule="evenodd" clip-rule="evenodd" d="M117 23H119.913V3.85915H119.977L127.188 23H129.812L137.023 3.85915H137.087V23H140V0H135.793L128.482 19.3239L121.207 0H117V23Z" fill="#9DB1D8"/>
<path fill-rule="evenodd" clip-rule="evenodd" d="M159 0H155.508L150.065 11.4613L143.654 0H140L148.136 14.6856L143.888 23H146.955L159 0Z" fill="#9DB1D8"/>
<path fill-rule="evenodd" clip-rule="evenodd" d="M158 23H161.037V13.5916H168.018C172.584 13.5916 175 11.0775 175 6.79577C175 2.51408 172.57 0 168.018 0H158V23ZM161.037 2.57747H166.978C170.427 2.57747 171.963 4.06338 171.963 6.80282C171.963 9.54225 170.427 11.0282 166.978 11.0282H161.037V2.57747Z" fill="#9DB1D8"/>
<path fill-rule="evenodd" clip-rule="evenodd" d="M116 53H112.838V32.1298H112.764L99.6561 53H96V27H99.1618V48.0837H99.2363L112.445 27H116V53Z" fill="#9DB1D8"/>
<path fill-rule="evenodd" clip-rule="evenodd" d="M117 53H120.524V41.0948H134.476V53H138V27H134.476V38.1822H120.524V27H117V53Z" fill="#9DB1D8"/>
<path fill-rule="evenodd" clip-rule="evenodd" d="M138 39.5C138 44.973 142.055 50 149.997 50C157.938 50 162 44.973 162 39.5C162 34.027 157.945 29 149.997 29C142.048 29 138 34.0128 138 39.5ZM141.332 39.5C141.332 35.4572 143.894 31.2444 149.997 31.2444C156.1 31.2444 158.668 35.443 158.668 39.5C158.668 43.557 156.106 47.7556 149.997 47.7556C143.887 47.7556 141.332 43.5287 141.332 39.5Z" fill="#9DB1D8"/>
<path fill-rule="evenodd" clip-rule="evenodd" d="M161 40C161 46.7826 164.885 53 172.5 53C180.115 53 184 46.7826 184 40C184 33.2174 180.115 27 172.5 27C164.885 27 161 33.224 161 40ZM164.192 40C164.192 34.9919 166.646 29.7801 172.494 29.7801C178.341 29.7801 180.795 34.9919 180.795 40C180.795 45.0081 178.341 50.2199 172.494 50.2199C166.646 50.2199 164.199 45.0081 164.199 40H164.192Z" fill="#9DB1D8"/>
<path d="M152 27H148V54H152V27Z" fill="#9DB1D8"/>
</svg>
