<svg width="41" height="40" viewBox="0 0 41 40" fill="none" xmlns="http://www.w3.org/2000/svg">
<g clip-path="url(#clip0_401_1325)">
<path d="M12.28 10.8398H9.51998C8.47998 10.8398 7.91998 11.0398 7.91998 11.9198V12.9198C7.91998 13.7998 8.47998 13.9998 9.51998 13.9998H10.16C10.56 13.9998 10.72 14.1998 10.72 14.7998V27.8798C10.72 28.9598 10.92 29.4798 11.76 29.4798H12.8C13.68 29.4798 13.84 28.9198 13.84 27.8798V11.9198C13.88 11.0398 13.36 10.8398 12.28 10.8398Z" fill="#9DB1D8"/>
<path d="M31.16 1.76C30 0.6 28.52 0 26.72 0H13.28C11.48 0 10 0.6 8.84 1.76L1.72 8.84C0.6 9.96 0 11.44 0 13.08V26.76C0 28.64 0.64 30.08 1.92 31.32L8.68 38.08C10 39.4 11.48 40 13.4 40H26.64C28.48 40 30 39.44 31.36 38.08L38.12 31.32C39.36 30.08 40.04 28.6 40.04 26.76V13.08C40.04 11.44 39.44 9.96 38.32 8.84L31.16 1.76ZM37.36 17.76C37.36 18.2 37.16 18.44 36.72 18.44H34.68V17C34.68 15.92 34.52 15.4 33.64 15.4H32.72C31.8 15.4 31.68 15.96 31.68 17V18.44H30.24C29.2 18.44 28.64 18.6 28.64 19.52V20.48C28.64 21.4 29.2 21.56 30.24 21.56H31.68V23C31.68 24.08 31.84 24.6 32.72 24.6H33.64C34.56 24.6 34.68 24.04 34.68 23V21.56H36.72C37.12 21.56 37.32 21.76 37.36 22.16V26.76C37.36 27.88 37.04 28.72 36.24 29.48L29.52 36.24C28.72 37.04 27.84 37.4 26.76 37.4H13.24C12.16 37.4 11.28 37.04 10.48 36.24L3.76 29.48C2.96 28.68 2.6 27.88 2.64 26.76V13.4C2.64 12.28 3 11.32 3.84 10.48L10.68 3.52C11.36 2.84 12.24 2.6 13.24 2.6H26.72C27.72 2.6 28.6 2.8 29.28 3.52L36.16 10.48C36.96 11.28 37.36 12.28 37.36 13.4V17.76Z" fill="#9DB1D8"/>
<path d="M25.44 19.8C27.12 18.56 27.16 17.28 27.16 16.24V15.2C26.96 11.76 25.84 10.48 21.88 10.48C17.92 10.48 16.76 11.8 16.6 15.2V16.24C16.6 17.28 16.64 18.56 18.32 19.8C16.28 20.6 16.16 22.32 16.16 24.6C16.16 27.96 17.32 29.64 21.92 29.72C26.48 29.64 27.68 27.96 27.68 24.6C27.64 22.32 27.48 20.6 25.44 19.8ZM21.88 13.32C23.56 13.32 24.2 13.92 24.2 15.96C24.2 17.92 23.52 18.6 21.88 18.6C20.2 18.6 19.56 17.92 19.56 15.96C19.56 13.92 20.2 13.32 21.88 13.32ZM21.88 26.84C19.96 26.84 19.24 26.08 19.24 24.16C19.24 22.24 19.92 21.36 21.88 21.36C23.8 21.36 24.52 22.24 24.52 24.16C24.52 26.08 23.8 26.84 21.88 26.84Z" fill="#9DB1D8"/>
</g>
<defs>
<clipPath id="clip0_401_1325">
<rect width="41" height="40" fill="white"/>
</clipPath>
</defs>
</svg>
