<svg width="164" height="48" viewBox="0 0 164 48" fill="none" xmlns="http://www.w3.org/2000/svg">
<path fill-rule="evenodd" clip-rule="evenodd" d="M26.7391 29.3333L21.8462 11.5556L16.9348 29.3333H26.7391Z" fill="white"/>
<path fill-rule="evenodd" clip-rule="evenodd" d="M32.087 47.1111H11.587L13.6389 40H30.0415L32.087 47.1111Z" fill="white"/>
<path fill-rule="evenodd" clip-rule="evenodd" d="M73.087 47.1111H56.1522L73.087 23.1111V47.1111Z" fill="white"/>
<path fill-rule="evenodd" clip-rule="evenodd" d="M55.2609 0H73.087L55.2609 25.7778V0Z" fill="white"/>
<path fill-rule="evenodd" clip-rule="evenodd" d="M30.3043 0H41.82L41.8913 33.7778L30.3043 0Z" fill="white"/>
<path fill-rule="evenodd" clip-rule="evenodd" d="M41.8913 33.7778V47.1111H46.3478L41.8913 33.7778Z" fill="#FF4800"/>
<path fill-rule="evenodd" clip-rule="evenodd" d="M0 0H14.2609L0 39.1111V0Z" fill="white"/>
<path fill-rule="evenodd" clip-rule="evenodd" d="M85.5652 20.4194H88.469L90.8295 14.2924H99.7608L102.07 20.4444H105.174L96.9217 0H93.8045L85.5652 20.4194ZM95.2984 2.45708H95.3566L98.8748 11.9791H91.7156L95.2984 2.45708Z" fill="white"/>
<path fill-rule="evenodd" clip-rule="evenodd" d="M104.283 20.4444H106.879V3.43036H106.936L113.364 20.4444H115.702L122.13 3.43036H122.186V20.4444H124.783V0H121.033L114.517 17.1768L108.032 0H104.283V20.4444Z" fill="white"/>
<path fill-rule="evenodd" clip-rule="evenodd" d="M141.717 0H138.605L133.754 10.1878L128.04 0H124.783L132.034 13.0539L128.248 20.4444H130.982L141.717 0Z" fill="white"/>
<path fill-rule="evenodd" clip-rule="evenodd" d="M140.826 20.4444H143.533V12.0814H149.756C153.825 12.0814 155.978 9.84664 155.978 6.04069C155.978 2.23474 153.813 0 149.756 0H140.826V20.4444ZM143.533 2.29108H148.828C151.902 2.29108 153.271 3.61189 153.271 6.04695C153.271 8.482 151.902 9.80282 148.828 9.80282H143.533V2.29108Z" fill="white"/>
<path fill-rule="evenodd" clip-rule="evenodd" d="M103.391 47.1111H100.573V28.5598H100.507L88.8239 47.1111H85.5652V24H88.3833V42.7411H88.4497L100.223 24H103.391V47.1111Z" fill="white"/>
<path fill-rule="evenodd" clip-rule="evenodd" d="M104.283 47.1111H107.423V36.5287H119.859V47.1111H123V24H119.859V33.9397H107.423V24H104.283V47.1111Z" fill="white"/>
<path fill-rule="evenodd" clip-rule="evenodd" d="M123 35.1111C123 39.976 126.614 44.4444 133.693 44.4444C140.771 44.4444 144.391 39.976 144.391 35.1111C144.391 30.2462 140.777 25.7778 133.693 25.7778C126.608 25.7778 123 30.2336 123 35.1111ZM125.97 35.1111C125.97 31.5175 128.253 27.7728 133.693 27.7728C139.132 27.7728 141.421 31.5049 141.421 35.1111C141.421 38.7173 139.138 42.4494 133.693 42.4494C128.247 42.4494 125.97 38.6921 125.97 35.1111Z" fill="white"/>
<path fill-rule="evenodd" clip-rule="evenodd" d="M143.5 35.5556C143.5 41.5845 146.963 47.1111 153.75 47.1111C160.537 47.1111 164 41.5845 164 35.5556C164 29.5266 160.537 24 153.75 24C146.963 24 143.5 29.5324 143.5 35.5556ZM146.345 35.5556C146.345 31.1039 148.533 26.4712 153.744 26.4712C158.956 26.4712 161.143 31.1039 161.143 35.5556C161.143 40.0072 158.956 44.6399 153.744 44.6399C148.533 44.6399 146.351 40.0072 146.351 35.5556H146.345Z" fill="white"/>
<path d="M135.478 24H131.913V48H135.478V24Z" fill="white"/>
</svg>
