<svg width="44" height="44" viewBox="0 0 44 44" fill="none" xmlns="http://www.w3.org/2000/svg">
<circle cx="22" cy="22" r="22" fill="white"/>
<path d="M31.6 14.4667C32.9333 15.9333 33.7333 17.5333 33.7333 20.2C33.7333 24.8667 30.4 29 25.7333 31.1333L24.5333 29.4C28.9333 27 29.8667 23.9333 30.1333 21.9333C29.4667 22.3333 28.5333 22.4667 27.6 22.3333C25.2 22.0667 23.3333 20.2 23.3333 17.6667C23.3333 16.4667 23.8667 15.2667 24.6667 14.3333C25.6 13.4 26.6667 13 28 13C29.4667 13 30.8 13.6667 31.6 14.4667V14.4667ZM18.2667 14.4667C19.6 15.9333 20.4 17.5333 20.4 20.2C20.4 24.8667 17.0667 29 12.4 31.1333L11.2 29.4C15.6 27 16.5333 23.9333 16.8 21.9333C16.1333 22.3333 15.2 22.4667 14.2667 22.3333C11.8667 22.0667 10 20.0667 10 17.6667C10 16.4667 10.5333 15.2667 11.3333 14.3333C12.2667 13.4 13.3333 13 14.6667 13C16.1333 13 17.4667 13.6667 18.2667 14.4667V14.4667Z" fill="#214BCE"/>
</svg>
