<svg width="31" height="22" viewBox="0 0 31 22" fill="none" xmlns="http://www.w3.org/2000/svg">
<path fill-rule="evenodd" clip-rule="evenodd" d="M27.3669 1.43791C28.6582 1.78491 29.6732 2.80361 30.0188 4.09991C30.6435 6.44712 30.646 11.3473 30.646 11.3473C30.646 11.3473 30.646 16.2474 30.0188 18.5947C29.6732 19.891 28.6582 20.9097 27.3669 21.2566C25.0287 21.8862 15.6481 21.8862 15.6481 21.8862C15.6481 21.8862 6.26777 21.8862 3.92946 21.2566C2.63808 20.9097 1.62325 19.891 1.27756 18.5947C0.650391 16.2474 0.650391 11.3473 0.650391 11.3473C0.650391 11.3473 0.650391 6.44712 1.27756 4.09991C1.62325 2.80361 2.63808 1.78491 3.92946 1.43791C6.26777 0.80835 15.6481 0.80835 15.6481 0.80835C15.6481 0.80835 25.0287 0.80835 27.3669 1.43791Z" fill="white"/>
<path fill-rule="evenodd" clip-rule="evenodd" d="M27.3669 1.43791C28.6582 1.78491 29.6732 2.80361 30.0188 4.09991C30.6435 6.44711 30.646 11.3473 30.646 11.3473C30.646 11.3473 30.646 16.2474 30.0188 18.5947C29.6732 19.891 28.6582 20.9097 27.3669 21.2566C25.0287 21.8862 15.6481 21.8862 15.6481 21.8862C15.6481 21.8862 6.26777 21.8862 3.92946 21.2566C2.63808 20.9097 1.62325 19.891 1.27756 18.5947C0.650391 16.2474 0.650391 11.3473 0.650391 11.3473C0.650391 11.3473 0.650391 6.44711 1.27756 4.09991C1.62325 2.80361 2.63808 1.78491 3.92946 1.43791C6.26777 0.80835 15.6481 0.80835 15.6481 0.80835C15.6481 0.80835 25.0287 0.80835 27.3669 1.43791ZM20.4385 11.3477L12.6458 15.8636V6.83169L20.4385 11.3477Z" fill="#E90002"/>
</svg>
